<?xml version="1.0" encoding="UTF-8"?>
<svg version="1.1" xmlns="http://www.w3.org/2000/svg" width="242" height="241">
<path d="M0 0 C79.86 0 159.72 0 242 0 C242 79.53 242 159.06 242 241 C162.14 241 82.28 241 0 241 C0 161.47 0 81.94 0 0 Z " fill="#50A1D7" transform="translate(0,0)"/>
<path d="M0 0 C0.92941406 -0.02449219 1.85882813 -0.04898438 2.81640625 -0.07421875 C13.26130383 -0.11792125 21.31660117 3.59402207 29.125 10.375 C30.11113281 11.21998047 30.11113281 11.21998047 31.1171875 12.08203125 C40.40326347 20.66352169 46.61785729 32.66325796 51.125 44.375 C51.125 45.365 51.125 46.355 51.125 47.375 C51.785 47.375 52.445 47.375 53.125 47.375 C53.24810547 46.22378662 53.37121094 45.07257324 53.49804688 43.88647461 C54.04313573 39.54430299 55.01823536 35.41164516 56.15625 31.19140625 C56.35222778 30.45043198 56.54820557 29.7094577 56.75012207 28.94602966 C57.161146 27.39670143 57.57470794 25.84804443 57.99072266 24.30004883 C58.6293881 21.92115525 59.25860522 19.53990208 59.88671875 17.15820312 C60.28851148 15.64829076 60.6908358 14.13851974 61.09375 12.62890625 C61.37659851 11.55873009 61.37659851 11.55873009 61.66516113 10.4669342 C63.00942635 5.49057365 63.00942635 5.49057365 64.125 4.375 C65.90571246 4.28773777 67.6898314 4.26800959 69.47265625 4.27734375 C70.55224609 4.28056641 71.63183594 4.28378906 72.74414062 4.28710938 C74.44860352 4.29967773 74.44860352 4.29967773 76.1875 4.3125 C77.89776367 4.31926758 77.89776367 4.31926758 79.64257812 4.32617188 C82.47010351 4.33800253 85.2975264 4.3544859 88.125 4.375 C86.64534334 9.82617885 85.16336526 15.27672108 83.68002319 20.72689819 C82.87281532 23.69553451 82.06786122 26.66477633 81.26293945 29.6340332 C78.45689085 39.96332225 75.59697386 50.27295824 72.62109375 60.5546875 C71.7875438 63.45638327 70.95494141 66.35834971 70.12243652 69.26034546 C69.58567098 71.11740458 69.04301191 72.97277109 68.4942627 74.82632446 C67.72497325 77.42578021 66.97596986 80.030358 66.23046875 82.63671875 C66.00088974 83.39125336 65.77131073 84.14578796 65.53477478 84.92318726 C62.65394643 95.18714802 65.5520276 105.77874327 70.546875 115 C73.65423839 119.86927047 76.8622622 123.7436311 82.125 126.375 C88.03695054 126.43411951 92.70493752 125.49369459 97.125 121.375 C100.10683155 116.59114017 102.19756398 111.94958852 103.125 106.375 C104.775 106.375 106.425 106.375 108.125 106.375 C108.75227348 117.02122489 107.72203392 127.26011122 101.8125 136.4375 C97.01988887 141.67593542 91.97336798 143.91319584 85 144.75 C78.04212631 144.07665739 72.2438651 140.94639883 67.375 135.9375 C61.46255122 128.55394429 57.50306499 118.82662467 57.125 109.375 C56.465 109.375 55.805 109.375 55.125 109.375 C55.02316406 110.09042969 54.92132813 110.80585938 54.81640625 111.54296875 C52.63475007 120.47913109 45.11786688 129.48533046 37.48046875 134.44238281 C20.7544854 144.49767152 1.9246014 146.63971793 -17.0625 142.4765625 C-31.82216803 138.21198629 -43.01978029 129.58515645 -50.875 116.375 C-62.12304056 95.6021563 -64.33436206 69.39006105 -57.83984375 46.76953125 C-53.93062092 33.93027388 -48.39165946 23.92534675 -38.875 14.375 C-38.32199219 13.79878906 -37.76898438 13.22257812 -37.19921875 12.62890625 C-27.19170243 3.06837577 -13.36628463 0.01838554 0 0 Z " fill="#000000" transform="translate(103.875,48.625)"/>
<path d="M0 0 C15.01070957 10.78818477 25.24388563 29.84115524 29.40234375 47.7265625 C30.22807344 54.72353512 27.70270022 60.88522829 25.46484375 67.4140625 C24.85793701 69.20142822 24.85793701 69.20142822 24.23876953 71.02490234 C10.78152923 109.86608992 10.78152923 109.86608992 -7.41015625 119.1640625 C-15.48286184 120.5886576 -22.53454075 120.84419369 -29.578125 116.25 C-30.24457031 115.74726563 -30.91101563 115.24453125 -31.59765625 114.7265625 C-32.21253906 114.26507813 -32.82742187 113.80359375 -33.4609375 113.328125 C-45.04555474 103.20763899 -48.45029676 86.28309611 -49.47265625 71.671875 C-50.35316508 50.92488564 -51.01521832 24.21683963 -36.59765625 7.7265625 C-36.03949219 7.06011719 -35.48132813 6.39367187 -34.90625 5.70703125 C-25.82044805 -4.30632357 -11.91803465 -6.91516435 0 0 Z " fill="#4E92CC" transform="translate(121.59765625,63.2734375)"/>
<path d="M0 0 C79.86 0 159.72 0 242 0 C242 79.53 242 159.06 242 241 C162.14 241 82.28 241 0 241 C0 161.47 0 81.94 0 0 Z M3.7042141 8.70282936 C2.58939853 12.33939615 2.71862214 15.98702332 2.73257446 19.75473022 C2.72804335 20.6482125 2.72351224 21.54169477 2.71884382 22.46225226 C2.70616263 25.46235455 2.70782259 28.46227618 2.70947266 31.46240234 C2.70348975 33.61086766 2.69668475 35.75933082 2.68911743 37.90779114 C2.67142649 43.74869141 2.66676076 49.58953312 2.66548586 55.43045759 C2.66358828 60.30382776 2.65623241 65.17718424 2.64914167 70.05054915 C2.6328485 81.5467273 2.62797358 93.04287413 2.62939453 104.5390625 C2.63059635 116.40426421 2.60948846 128.26928413 2.5779072 140.13443983 C2.55177055 150.31627967 2.54102613 160.49806005 2.54230535 170.67993319 C2.54281573 176.76334495 2.53709034 182.8465952 2.51594925 188.9299736 C2.49661083 194.6509546 2.49641242 200.37161927 2.51098251 206.09261131 C2.51307714 208.19287387 2.508331 210.29315601 2.4962616 212.39338493 C2.48085584 215.25973118 2.49008653 218.12498035 2.50552368 220.99130249 C2.49523656 221.82321464 2.48494943 222.65512679 2.47435057 223.5122484 C2.53706828 228.77879968 3.42678132 231.87470138 7 236 C10.64987089 238.91299202 15.30411424 238.28082142 19.76145935 238.26069641 C20.65564719 238.26452196 21.54983503 238.26834751 22.47111946 238.27228898 C25.47356291 238.28262475 28.47581534 238.27862572 31.47827148 238.2746582 C33.62835874 238.27900435 35.77844444 238.28418716 37.92852783 238.29014587 C43.773499 238.30355736 49.6184056 238.30411217 55.46338916 238.30158257 C60.33933792 238.30051436 65.21527353 238.30539238 70.09121948 238.310188 C81.59215433 238.32129054 93.09305652 238.32171633 104.59399414 238.31567383 C116.46713855 238.3096318 128.34016452 238.32194923 140.21328872 238.3432439 C150.40020741 238.36084397 160.58708835 238.36686379 170.77402169 238.36360615 C176.86128175 238.36179067 182.94845733 238.36445592 189.03570366 238.37832069 C194.75910476 238.39086852 200.48232084 238.38898377 206.20571899 238.37590981 C208.30801009 238.37353786 210.41031409 238.37630072 212.51259041 238.38453293 C215.37912912 238.39494973 218.24504119 238.38694045 221.11155701 238.3742218 C221.946382 238.38159609 222.78120699 238.38897037 223.64132971 238.39656812 C229.32970686 238.34335409 232.50552152 237.2781342 236.78784943 233.36720943 C238.64484513 229.74068163 238.41940756 226.10684461 238.39440918 222.12464905 C238.40050028 221.21821055 238.40659139 220.31177206 238.41286707 219.37786573 C238.42954521 216.33389656 238.42471437 213.29034349 238.41992188 210.24633789 C238.42725938 208.06669173 238.43584467 205.88704946 238.44558716 203.70741272 C238.46784473 197.78184873 238.47073173 191.85642362 238.46883965 185.93082356 C238.46872015 180.98776364 238.4772758 176.04473335 238.48561716 171.10168165 C238.50596754 158.7755083 238.50699569 146.44941295 238.49981004 134.12322842 C238.49458077 124.08409968 238.51095541 114.04518265 238.54199219 104.00610352 C238.57790671 92.34839716 238.59685321 80.69084181 238.59245348 69.03307718 C238.59038261 62.86191906 238.59591758 56.69099923 238.62034607 50.51988411 C238.64255504 44.71758547 238.64078384 38.91578595 238.62041855 33.11348534 C238.61699822 30.98216492 238.62214134 28.85081128 238.63640213 26.71953583 C238.65450931 23.81321491 238.64190892 20.90860267 238.62145996 18.00233459 C238.63397781 17.15583676 238.64649566 16.30933892 238.65939283 15.43718964 C238.59383434 11.10116676 238.40143366 9.49893901 235.58615875 5.99985409 C231.19715793 2.60587789 227.77980851 2.8516637 222.40312195 2.85282898 C221.50247586 2.84915229 220.60182976 2.8454756 219.67389137 2.8416875 C216.63765042 2.83062101 213.60144367 2.82680182 210.56518555 2.82299805 C208.3956898 2.81673569 206.22619514 2.8100891 204.05670166 2.80308533 C198.1496517 2.7856557 192.24260985 2.77511847 186.33554053 2.7668798 C182.64793045 2.76173439 178.96032291 2.75565849 175.27271461 2.74936867 C163.74343373 2.73031215 152.21415927 2.71608132 140.68486565 2.7077567 C127.36039587 2.69797795 114.03614184 2.67164369 100.71172684 2.63125581 C90.42294473 2.60113552 80.13421026 2.58629176 69.8453849 2.58297569 C63.69545476 2.58062075 57.5457017 2.57160264 51.39581871 2.54651451 C45.61168267 2.52329999 39.82784114 2.51897392 34.04367065 2.52927589 C31.91879614 2.52977296 29.79390744 2.52340254 27.66907692 2.50971985 C24.77163788 2.49210351 21.87526757 2.49905656 18.97782898 2.51225281 C18.13385785 2.50128356 17.28988673 2.49031432 16.42034072 2.47901267 C10.50692488 2.54418798 7.40574097 3.83854691 3.7042141 8.70282936 Z " fill="#3C3D3F" transform="translate(0,0)"/>
<path d="M0 0 C0.33 0 0.66 0 1 0 C1 3.96 1 7.92 1 12 C-2.3 12 -5.6 12 -9 12 C-8.236875 11.4225 -7.47375 10.845 -6.6875 10.25 C-3.0406399 7.1968148 -0.84634747 4.73954584 0 0 Z " fill="#FFFFFF" transform="translate(241,229)"/>
<path d="M0 0 C2.97 0 5.94 0 9 0 C9 3.63 9 7.26 9 11 C7 8 7 8 6.1875 6.0625 C4.61560932 3.33237408 2.51351053 1.85206039 0 0 Z " fill="#FFFFFF" transform="translate(233,0)"/>
<path d="M0 0 C0.99 1.32 1.98 2.64 3 4 C5.25767869 6.39878361 7.24337973 8.16225315 10 10 C6.7 10 3.4 10 0 10 C0 6.7 0 3.4 0 0 Z " fill="#FFFFFF" transform="translate(0,231)"/>
<path d="M0 0 C2.97 0 5.94 0 9 0 C7.8553125 0.804375 7.8553125 0.804375 6.6875 1.625 C3.77135526 4.20205814 2.5294378 6.45814404 1 10 C0.67 10 0.34 10 0 10 C0 6.7 0 3.4 0 0 Z " fill="#FFFFFF" transform="translate(0,0)"/>
</svg>
